<svg xmlns="http://www.w3.org/2000/svg" viewBox="0 0 512 512">
  <defs>
    <radialGradient id="core" cx="50%" cy="48%" r="52%">
      <stop offset="0%" stop-color="#7f0e14"/>
      <stop offset="55%" stop-color="#5a0910"/>
      <stop offset="100%" stop-color="#310307"/>
    </radialGradient>
  </defs>
  <g fill="url(#core)">
    <path d="M255 62c22 28 21 58 48 71 28 14 60 1 88 17 10 31-4 57-1 84 3 30 31 49 32 81-25 20-59 17-80 35-22 19-24 54-49 77-32-8-49-36-76-43-32-9-62 10-94 2-12-32 4-62-4-89-7-23-35-38-41-65 21-27 55-33 73-56 21-26 16-59 32-86 27-7 50 12 72 7 25-5 39-27 60-35Z"/>
    <path d="M81 274c24-13 47-8 61 8 15 18 14 46-2 62-14 13-33 17-59 10-16-24-16-54 0-80Z"/>
    <path d="M434 239c23 10 38 29 43 52-16 19-37 28-61 24-21-3-36-18-42-39 6-20 26-35 60-37Z"/>
    <path d="M180 79c7 22-1 42-18 56-18 13-42 15-60 6 0-24 9-43 28-58 18-5 35-7 50-4Z"/>
    <path d="M334 96c19-8 38-6 57 7 14 18 20 37 18 58-22 7-42 1-57-14-15-16-22-33-18-51Z"/>
    <path d="M152 402c21-7 40-2 57 11 6 22 0 43-16 61-23 0-42-9-56-27-1-18 4-33 15-45Z"/>
    <path d="M329 398c24-3 44 5 60 22-2 24-15 44-38 61-20-7-34-22-39-44 0-16 6-29 17-39Z"/>
    <circle cx="255" cy="257" r="104"/>
  </g>
</svg>
