<?xml version="1.0" standalone="no"?>
<!DOCTYPE svg PUBLIC "-//W3C//DTD SVG 20010904//EN"
 "http://www.w3.org/TR/2001/REC-SVG-20010904/DTD/svg10.dtd">
<svg version="1.0" xmlns="http://www.w3.org/2000/svg"
 width="963.000000pt" height="1280.000000pt" viewBox="0 0 963.000000 1280.000000"
 preserveAspectRatio="xMidYMid meet">
<metadata>
Created by potrace 1.15, written by Peter Selinger 2001-2017
</metadata>
<g transform="translate(0.000000,1280.000000) scale(0.100000,-0.100000)"
fill="#ffd978" stroke="none">
<path d="M4715 12794 c-11 -2 -45 -9 -75 -15 -85 -18 -155 -53 -214 -109 -86
-81 -139 -167 -513 -825 -442 -777 -762 -1226 -1265 -1772 -513 -558 -1227
-1103 -2108 -1610 -83 -47 -149 -88 -147 -89 7 -7 318 130 502 221 855 422
1575 1012 2234 1830 402 499 585 777 1034 1577 253 449 332 565 416 607 59 30
148 44 282 43 400 -2 904 -198 1387 -540 346 -244 739 -629 1048 -1027 766
-986 1357 -2386 1758 -4165 421 -1869 543 -4014 335 -5890 -46 -415 -124 -880
-148 -880 -17 0 -89 61 -157 131 -111 115 -211 279 -268 439 -56 154 -56 160
-56 843 0 2106 -143 3421 -516 4747 -214 758 -512 1447 -852 1970 -76 117
-268 380 -277 380 -3 0 24 -42 59 -92 563 -816 977 -2049 1225 -3648 143 -920
187 -1454 216 -2645 8 -301 7 -302 -71 -249 -111 75 -268 263 -341 409 -67
134 -72 163 -113 760 -34 492 -41 573 -76 890 -137 1253 -414 2245 -780 2790
-124 186 -145 201 -69 51 247 -492 428 -1091 564 -1871 100 -571 179 -1179
167 -1278 -9 -68 -16 -70 -102 -27 -139 69 -301 246 -393 429 -35 69 -56 155
-96 391 -94 561 -177 892 -322 1280 -147 395 -306 702 -496 957 -80 108 -102
128 -57 52 99 -169 212 -419 311 -681 158 -424 346 -1108 369 -1348 11 -114 4
-125 -70 -116 -101 14 -232 110 -298 218 -18 30 -61 126 -96 214 -109 274
-279 637 -612 1304 -417 834 -500 1022 -654 1475 -267 787 -415 1551 -473
2435 l-13 195 -10 -110 c-14 -163 -11 -806 4 -970 50 -538 144 -991 312 -1495
123 -368 257 -683 500 -1170 113 -227 152 -317 191 -440 108 -334 172 -640
155 -733 -9 -50 -40 -63 -113 -48 -114 23 -241 106 -381 250 -188 192 -269
318 -442 679 -254 530 -421 944 -621 1534 -29 86 -54 156 -55 155 -4 -3 63
-325 95 -457 188 -788 516 -1543 827 -1908 40 -47 58 -79 73 -130 86 -289 124
-475 119 -577 l-3 -60 -36 -3 c-109 -9 -304 134 -452 331 -72 96 -200 297
-282 444 -190 340 -501 989 -645 1345 -24 59 -45 106 -47 104 -6 -6 65 -260
117 -416 64 -193 157 -429 256 -647 115 -253 335 -687 398 -783 31 -47 56 -96
56 -108 0 -13 9 -60 21 -104 58 -228 97 -489 81 -543 -8 -27 -13 -30 -43 -27
-19 1 -56 13 -84 27 -60 29 -189 144 -211 189 -9 17 -28 42 -43 56 -48 45
-209 320 -286 490 -117 255 -302 760 -400 1092 -16 54 -31 96 -33 94 -4 -5 30
-216 59 -366 102 -521 322 -1094 531 -1378 35 -46 42 -68 63 -175 31 -158 49
-316 41 -360 -7 -35 -7 -35 -44 -25 -113 31 -217 153 -386 455 -143 254 -317
702 -447 1147 -27 93 -52 172 -55 175 -4 3 -4 -3 -1 -14 3 -11 9 -47 12 -80
22 -204 87 -515 155 -742 41 -134 147 -408 196 -504 19 -39 27 -70 29 -123 1
-39 10 -129 19 -201 17 -140 21 -311 7 -319 -16 -10 -100 54 -146 111 -177
223 -390 801 -531 1438 -19 88 -37 165 -40 170 -2 6 -2 -69 0 -165 8 -297 58
-554 185 -940 53 -161 58 -186 46 -200 -12 -13 -13 -53 -8 -230 5 -193 -3
-319 -21 -338 -3 -2 -21 6 -41 18 -108 67 -228 331 -320 705 -65 269 -141 665
-185 974 -11 80 -22 146 -24 148 -9 9 -18 -146 -18 -306 1 -238 37 -531 102
-829 18 -83 19 -95 5 -108 -21 -21 -23 -37 -30 -226 -8 -243 -35 -424 -65
-443 -17 -10 -66 22 -117 79 -91 99 -178 303 -222 521 -54 269 -91 704 -99
1180 l-7 370 -27 -110 c-51 -208 -62 -322 -61 -650 0 -198 6 -356 16 -464 9
-90 14 -168 12 -172 -3 -4 -12 -56 -20 -116 -50 -351 -102 -553 -143 -553 -9
0 -41 26 -72 58 -202 208 -269 699 -258 1894 2 240 2 435 1 434 -10 -9 -67
-313 -83 -441 -27 -213 -44 -563 -37 -789 6 -174 5 -190 -13 -215 -10 -14 -35
-91 -54 -171 -67 -283 -153 -510 -193 -510 -28 0 -95 76 -129 146 -80 167
-106 349 -106 739 0 445 40 895 112 1274 11 57 19 106 16 108 -7 7 -75 -165
-111 -281 -42 -132 -79 -294 -100 -434 -19 -131 -45 -399 -45 -473 0 -32 -4
-60 -9 -64 -5 -3 -22 -42 -37 -88 -85 -260 -181 -484 -237 -551 -23 -28 -25
-29 -47 -13 -55 39 -106 145 -134 278 -53 259 -62 561 -37 1162 8 180 12 330
9 332 -8 9 -57 -209 -78 -343 -40 -270 -70 -868 -52 -1040 33 -297 138 -498
281 -532 44 -10 55 -9 95 8 28 13 57 37 77 64 27 36 111 202 146 288 9 22 11
19 17 -35 43 -366 145 -596 296 -664 147 -67 230 18 331 339 l33 104 18 -104
c23 -127 75 -288 125 -383 71 -134 192 -237 282 -237 44 0 107 36 132 76 27
45 57 132 83 249 l23 99 22 -65 c90 -270 282 -472 425 -445 46 9 100 55 119
105 21 51 44 176 53 285 l7 88 46 -94 c104 -213 215 -318 333 -318 115 0 157
93 158 350 l0 105 47 -70 c127 -190 280 -272 386 -207 60 38 71 83 65 266 l-5
154 48 -58 c52 -63 151 -139 215 -166 22 -9 64 -17 94 -18 104 -2 160 68 160
199 0 65 -12 170 -26 239 l-6 30 28 -19 c58 -39 135 -74 188 -85 111 -23 194
28 216 133 14 67 1 220 -30 374 -11 52 -20 98 -20 100 0 3 19 -12 43 -34 207
-190 451 -229 525 -83 38 76 27 233 -33 470 -13 52 -23 95 -22 96 1 1 38 -20
81 -47 182 -112 365 -124 449 -31 43 47 58 163 38 285 -9 57 -2 60 21 9 9 -20
69 -152 133 -292 65 -140 144 -322 177 -405 74 -186 99 -235 156 -308 125
-163 345 -261 474 -212 13 5 18 -1 23 -32 28 -164 69 -343 92 -400 107 -268
462 -591 628 -571 34 4 35 3 40 -37 4 -37 28 -369 40 -570 20 -322 38 -433 90
-556 96 -228 366 -525 520 -570 l45 -13 0 -466 c0 -421 2 -473 20 -552 25
-115 88 -274 150 -378 143 -239 357 -440 468 -440 44 0 89 24 106 58 58 115
153 750 205 1377 150 1801 17 3753 -375 5500 -471 2096 -1184 3635 -2173 4684
-580 617 -1272 1035 -1905 1152 -104 19 -356 34 -401 23z"/>
</g>
</svg>
